g _fill_1
v -6.476833 -6.616116 0
v -5.760136 -6.581154 0
v -5.192009 -6.616116 0
v -4.676338 -6.581154 0
v -3.942154 -6.616116 0
v -3.138042 -6.528712 0
v -2.601391 -6.607322 0
v -2.100998 -6.606895 0
v -1.62463 -6.476197 0
v -2.061203 -6.332501 0
v -2.510273 -6.224071 0
v -2.792248 -6.173381 0
v -3.164776 -6.213072 0
v -3.396118 -6.10981 0
v -3.612244 -6.103454 0
v -3.790226 -6.001748 0
v -4.387749 -5.880972 0
v -4.800926 -5.982678 0
v -5.11874 -5.900028 0
v -5.373001 -5.96995 0
v -5.767113 -5.823749 0
v -6.055691 -5.80693 0
v -6.529903 -5.868245 0
v -6.809593 -5.798322 0
v -7.121067 -5.880958 0
v -7.279984 -6.071656 0
v -7.546959 -6.084369 0
v -7.770317 -6.189712 0
v -7.835476 -6.460931 0
v -7.368347 -6.502491 0
v -6.975033 -6.616116 0
v -6.520538 -6.616116 0
vt 1.295367 -2.563223
vt 1.152027 -2.556231
vt 1.038402 -2.563223
vt 0.9352676 -2.556231
vt 0.7884308 -2.563223
vt 0.6276085 -2.545743
vt 0.5202782 -2.561464
vt 0.4201996 -2.561379
vt 0.324926 -2.535239
vt 0.4122406 -2.5065
vt 0.5020546 -2.484814
vt 0.5584496 -2.474676
vt 0.6329552 -2.482615
vt 0.6792237 -2.461962
vt 0.7224487 -2.460691
vt 0.7580452 -2.44035
vt 0.8775498 -2.416194
vt 0.9601852 -2.436536
vt 1.023748 -2.420006
vt 1.0746 -2.43399
vt 1.153423 -2.40475
vt 1.211138 -2.401386
vt 1.305981 -2.413649
vt 1.361919 -2.399664
vt 1.424213 -2.416192
vt 1.455997 -2.454331
vt 1.509392 -2.456874
vt 1.554063 -2.477942
vt 1.567095 -2.532186
vt 1.473669 -2.540498
vt 1.395007 -2.563223
vt 1.304108 -2.563223
vn 0 0 -1
vn 0 0 -1
vn 0 0 -1
vn 0 0 -1
vn 0 0 -1
vn 0 0 -1
vn 0 0 -1
vn 0 0 -1
vn 0 0 -1
vn 0 0 -1
vn 0 0 -1
vn 0 0 -1
vn 0 0 -1
vn 0 0 -1
vn 0 0 -1
vn 0 0 -1
vn 0 0 -1
vn 0 0 -1
vn 0 0 -1
vn 0 0 -1
vn 0 0 -1
vn 0 0 -1
vn 0 0 -1
vn 0 0 -1
vn 0 0 -1
vn 0 0 -1
vn 0 0 -1
vn 0 0 -1
vn 0 0 -1
vn 0 0 -1
vn 0 0 -1
vn 0 0 -1
g _fill_1_0
f 28/28/28 20/20/20 13/13/13
f 13/13/13 6/6/6 28/28/28
f 20/20/20 15/15/15 13/13/13
f 28/28/28 26/26/26 20/20/20
f 6/6/6 2/2/2 28/28/28
f 13/13/13 9/9/9 6/6/6
f 20/20/20 18/18/18 15/15/15
f 26/26/26 23/23/23 20/20/20
f 2/2/2 32/32/32 28/28/28
f 6/6/6 4/4/4 2/2/2
f 9/9/9 7/7/7 6/6/6
f 13/13/13 11/11/11 9/9/9
f 18/18/18 16/16/16 15/15/15
f 23/23/23 21/21/21 20/20/20
f 26/26/26 24/24/24 23/23/23
f 32/32/32 30/30/30 28/28/28
f 2/2/2 1/1/1 32/32/32
f 4/4/4 3/3/3 2/2/2
f 6/6/6 5/5/5 4/4/4
f 9/9/9 8/8/8 7/7/7
f 11/11/11 10/10/10 9/9/9
f 13/13/13 12/12/12 11/11/11
f 15/15/15 14/14/14 13/13/13
f 18/18/18 17/17/17 16/16/16
f 20/20/20 19/19/19 18/18/18
f 23/23/23 22/22/22 21/21/21
f 26/26/26 25/25/25 24/24/24
f 28/28/28 27/27/27 26/26/26
f 30/30/30 29/29/29 28/28/28
f 32/32/32 31/31/31 30/30/30
