g _fill
v -6.621841 -6.712251 0
v -6.211048 -6.642328 0
v -5.695372 -6.616107 0
v -5.302057 -6.686029 0
v -4.830082 -6.624847 0
v -4.358107 -6.70351 0
v -3.956053 -6.598626 0
v -2.977139 -6.624847 0
v -2.330357 -6.537445 0
v -1.624631 -6.476197 0
v -3.217045 -6.155795 0
v -4.722399 -5.761369 0
v -5.532324 -5.512324 0
v -6.716333 -4.963975 0
v -7.1747 -5.010489 0
v -7.443884 -5.174162 0
v -7.620897 -5.378686 0
v -7.621834 -5.62595 0
v -7.970264 -5.526772 0
v -8.302999 -5.619831 0
v -8.529757 -5.316388 0
v -9.125708 -4.973822 0
v -9.467546 -4.953208 0
v -9.91102 -5.047206 0
v -10.21885 -5.220557 0
v -10.33027 -5.440044 0
v -10.51665 -5.264602 0
v -10.81144 -5.127533 0
v -11.26518 -5.073363 0
v -11.58881 -5.396996 0
v -11.82802 -5.059292 0
v -12.34865 -5.073363 0
v -12.65821 -5.425138 0
v -12.40493 -6.002049 0
v -12.84113 -6.002049 0
v -13.10848 -6.044263 0
v -13.34769 -5.650274 0
v -14.20602 -5.59399 0
v -14.75479 -5.692487 0
v -14.95178 -5.509564 0
v -16.14782 -5.903553 0
v -17.372 -6.170902 0
v -18.90022 -6.450692 0
v -17.1364 -6.52871 0
v -16.4197 -6.598632 0
v -15.72047 -6.52871 0
v -14.75904 -6.485008 0
v -14.13848 -6.589891 0
v -13.60532 -6.511229 0
v -13.23823 -6.563671 0
v -12.72255 -6.677295 0
v -12.40791 -6.572411 0
v -11.93593 -6.677294 0
v -11.18427 -6.677294 0
v -10.69481 -6.55493 0
v -10.24031 -6.624852 0
v -9.724634 -6.537449 0
v -9.217699 -6.642333 0
v -8.605879 -6.616112 0
v -8.307451 -6.460931 0
v -8.020288 -6.572406 0
v -7.452169 -6.572406 0
v -6.665545 -6.712251 0
vt 1.324368 -2.58245
vt 1.24221 -2.568465
vt 1.139074 -2.563221
vt 1.060411 -2.577206
vt 0.9660164 -2.564969
vt 0.8716213 -2.580702
vt 0.7912105 -2.559725
vt 0.5954277 -2.56497
vt 0.4660713 -2.547489
vt 0.3249262 -2.535239
vt 0.643409 -2.471159
vt 0.9444798 -2.392274
vt 1.106465 -2.342465
vt 1.343267 -2.232795
vt 1.43494 -2.242098
vt 1.488777 -2.274832
vt 1.524179 -2.315737
vt 1.524367 -2.36519
vt 1.594053 -2.345355
vt 1.6606 -2.363966
vt 1.705951 -2.303277
vt 1.825142 -2.234764
vt 1.893509 -2.230642
vt 1.982204 -2.249441
vt 2.043771 -2.284111
vt 2.066055 -2.328009
vt 2.10333 -2.29292
vt 2.162288 -2.265507
vt 2.253035 -2.254673
vt 2.317762 -2.319399
vt 2.365604 -2.251858
vt 2.469729 -2.254673
vt 2.531642 -2.325027
vt 2.480986 -2.44041
vt 2.568226 -2.44041
vt 2.621696 -2.448853
vt 2.669538 -2.370055
vt 2.841204 -2.358798
vt 2.950958 -2.378497
vt 2.990357 -2.341913
vt 3.229564 -2.420711
vt 3.4744 -2.47418
vt 3.780045 -2.530138
vt 3.42728 -2.545742
vt 3.283939 -2.559726
vt 3.144095 -2.545742
vt 2.951808 -2.537002
vt 2.827697 -2.557978
vt 2.721064 -2.542246
vt 2.647646 -2.552734
vt 2.544511 -2.575459
vt 2.481581 -2.554482
vt 2.387186 -2.575459
vt 2.236853 -2.575459
vt 2.138961 -2.550986
vt 2.048063 -2.56497
vt 1.944927 -2.54749
vt 1.84354 -2.568467
vt 1.721176 -2.563222
vt 1.66149 -2.532186
vt 1.604058 -2.554481
vt 1.490434 -2.554481
vt 1.333109 -2.58245
vn 0 0 -1
vn 0 0 -1
vn 0 0 -1
vn 0 0 -1
vn 0 0 -1
vn 0 0 -1
vn 0 0 -1
vn 0 0 -1
vn 0 0 -1
vn 0 0 -1
vn 0 0 -1
vn 0 0 -1
vn 0 0 -1
vn 0 0 -1
vn 0 0 -1
vn 0 0 -1
vn 0 0 -1
vn 0 0 -1
vn 0 0 -1
vn 0 0 -1
vn 0 0 -1
vn 0 0 -1
vn 0 0 -1
vn 0 0 -1
vn 0 0 -1
vn 0 0 -1
vn 0 0 -1
vn 0 0 -1
vn 0 0 -1
vn 0 0 -1
vn 0 0 -1
vn 0 0 -1
vn 0 0 -1
vn 0 0 -1
vn 0 0 -1
vn 0 0 -1
vn 0 0 -1
vn 0 0 -1
vn 0 0 -1
vn 0 0 -1
vn 0 0 -1
vn 0 0 -1
vn 0 0 -1
vn 0 0 -1
vn 0 0 -1
vn 0 0 -1
vn 0 0 -1
vn 0 0 -1
vn 0 0 -1
vn 0 0 -1
vn 0 0 -1
vn 0 0 -1
vn 0 0 -1
vn 0 0 -1
vn 0 0 -1
vn 0 0 -1
vn 0 0 -1
vn 0 0 -1
vn 0 0 -1
vn 0 0 -1
vn 0 0 -1
vn 0 0 -1
vn 0 0 -1
g _fill_0
f 60/60/60 36/36/36 34/34/34
f 34/34/34 18/18/18 60/60/60
f 60/60/60 41/41/41 36/36/36
f 18/18/18 9/9/9 60/60/60
f 34/34/34 20/20/20 18/18/18
f 60/60/60 49/49/49 41/41/41
f 9/9/9 3/3/3 60/60/60
f 18/18/18 13/13/13 9/9/9
f 34/34/34 26/26/26 20/20/20
f 49/49/49 47/47/47 41/41/41
f 60/60/60 55/55/55 49/49/49
f 3/3/3 62/62/62 60/60/60
f 9/9/9 5/5/5 3/3/3
f 13/13/13 12/12/12 9/9/9
f 18/18/18 14/14/14 13/13/13
f 26/26/26 22/22/22 20/20/20
f 34/34/34 30/30/30 26/26/26
f 41/41/41 37/37/37 36/36/36
f 47/47/47 44/44/44 41/41/41
f 55/55/55 52/52/52 49/49/49
f 60/60/60 57/57/57 55/55/55
f 3/3/3 2/2/2 62/62/62
f 9/9/9 7/7/7 5/5/5
f 12/12/12 11/11/11 9/9/9
f 18/18/18 16/16/16 14/14/14
f 26/26/26 24/24/24 22/22/22
f 30/30/30 28/28/28 26/26/26
f 34/34/34 32/32/32 30/30/30
f 41/41/41 39/39/39 37/37/37
f 44/44/44 42/42/42 41/41/41
f 47/47/47 46/46/46 44/44/44
f 52/52/52 50/50/50 49/49/49
f 55/55/55 53/53/53 52/52/52
f 60/60/60 58/58/58 57/57/57
f 2/2/2 1/1/1 62/62/62
f 5/5/5 4/4/4 3/3/3
f 7/7/7 6/6/6 5/5/5
f 9/9/9 8/8/8 7/7/7
f 11/11/11 10/10/10 9/9/9
f 16/16/16 15/15/15 14/14/14
f 18/18/18 17/17/17 16/16/16
f 20/20/20 19/19/19 18/18/18
f 22/22/22 21/21/21 20/20/20
f 24/24/24 23/23/23 22/22/22
f 26/26/26 25/25/25 24/24/24
f 28/28/28 27/27/27 26/26/26
f 30/30/30 29/29/29 28/28/28
f 32/32/32 31/31/31 30/30/30
f 34/34/34 33/33/33 32/32/32
f 36/36/36 35/35/35 34/34/34
f 39/39/39 38/38/38 37/37/37
f 41/41/41 40/40/40 39/39/39
f 44/44/44 43/43/43 42/42/42
f 46/46/46 45/45/45 44/44/44
f 49/49/49 48/48/48 47/47/47
f 52/52/52 51/51/51 50/50/50
f 55/55/55 54/54/54 53/53/53
f 57/57/57 56/56/56 55/55/55
f 60/60/60 59/59/59 58/58/58
f 62/62/62 61/61/61 60/60/60
f 1/1/1 63/63/63 62/62/62
