g _fill_0
v -6.388145 -6.720984 0
v -5.750105 -6.58988 0
v -5.27813 -6.720984 0
v -4.692528 -6.624841 0
v -4.238033 -6.633581 0
v -3.696135 -6.686023 0
v -3.171717 -6.651062 0
v -2.787144 -6.60736 0
v -2.114141 -6.616101 0
v -1.62463 -6.476197 0
v -2.948009 -6.318821 0
v -4.158756 -6.151667 0
v -5.353462 -5.971725 0
v -6.471783 -5.750828 0
v -6.515701 -6.189664 0
v -6.870865 -6.197736 0
v -7.129169 -6.33496 0
v -7.452049 -6.052441 0
v -7.766857 -6.004009 0
v -8.105881 -6.133161 0
v -8.226963 -5.907145 0
v -8.50948 -5.907145 0
v -8.848503 -5.761849 0
v -9.227886 -5.769921 0
v -9.558838 -5.891001 0
v -9.800999 -6.084729 0
v -10.08356 -5.98787 0
v -10.34993 -6.052445 0
v -11.04409 -6.464112 0
v -10.59224 -6.519959 0
v -10.11152 -6.53744 0
v -9.77065 -6.458777 0
v -9.316154 -6.572402 0
v -8.686853 -6.554921 0
v -8.141386 -6.478411 0
v -7.900227 -6.581141 0
v -7.463202 -6.58988 0
v -7.148551 -6.686023 0
v -6.414367 -6.720984 0
vt 1.277629 -2.584197
vt 1.150021 -2.557976
vt 1.055626 -2.584197
vt 0.9385055 -2.564968
vt 0.8476067 -2.566716
vt 0.7392269 -2.577204
vt 0.6343433 -2.570212
vt 0.5574287 -2.561472
vt 0.4228283 -2.56322
vt 0.324926 -2.535239
vt 0.5896019 -2.503764
vt 0.8317512 -2.470333
vt 1.070692 -2.434345
vt 1.294357 -2.390166
vt 1.30314 -2.477933
vt 1.374173 -2.479547
vt 1.425834 -2.506992
vt 1.49041 -2.450488
vt 1.553371 -2.440802
vt 1.621176 -2.466632
vt 1.645393 -2.421429
vt 1.701896 -2.421429
vt 1.769701 -2.39237
vt 1.845577 -2.393984
vt 1.911768 -2.4182
vt 1.9602 -2.456946
vt 2.016711 -2.437574
vt 2.069987 -2.450489
vt 2.208817 -2.532822
vt 2.118448 -2.543992
vt 2.022304 -2.547488
vt 1.95413 -2.531755
vt 1.863231 -2.55448
vt 1.737371 -2.550984
vt 1.628277 -2.535682
vt 1.580045 -2.556228
vt 1.49264 -2.557976
vt 1.42971 -2.577204
vt 1.282873 -2.584197
vn 0 0 -1
vn 0 0 -1
vn 0 0 -1
vn 0 0 -1
vn 0 0 -1
vn 0 0 -1
vn 0 0 -1
vn 0 0 -1
vn 0 0 -1
vn 0 0 -1
vn 0 0 -1
vn 0 0 -1
vn 0 0 -1
vn 0 0 -1
vn 0 0 -1
vn 0 0 -1
vn 0 0 -1
vn 0 0 -1
vn 0 0 -1
vn 0 0 -1
vn 0 0 -1
vn 0 0 -1
vn 0 0 -1
vn 0 0 -1
vn 0 0 -1
vn 0 0 -1
vn 0 0 -1
vn 0 0 -1
vn 0 0 -1
vn 0 0 -1
vn 0 0 -1
vn 0 0 -1
vn 0 0 -1
vn 0 0 -1
vn 0 0 -1
vn 0 0 -1
vn 0 0 -1
vn 0 0 -1
vn 0 0 -1
g _fill_0_0
f 17/17/17 8/8/8 35/35/35
f 35/35/35 26/26/26 17/17/17
f 8/8/8 2/2/2 35/35/35
f 17/17/17 12/12/12 8/8/8
f 26/26/26 20/20/20 17/17/17
f 35/35/35 28/28/28 26/26/26
f 2/2/2 37/37/37 35/35/35
f 8/8/8 5/5/5 2/2/2
f 12/12/12 9/9/9 8/8/8
f 17/17/17 13/13/13 12/12/12
f 26/26/26 22/22/22 20/20/20
f 35/35/35 32/32/32 28/28/28
f 2/2/2 38/38/38 37/37/37
f 5/5/5 4/4/4 2/2/2
f 8/8/8 6/6/6 5/5/5
f 12/12/12 11/11/11 9/9/9
f 17/17/17 15/15/15 13/13/13
f 20/20/20 18/18/18 17/17/17
f 26/26/26 24/24/24 22/22/22
f 32/32/32 30/30/30 28/28/28
f 35/35/35 33/33/33 32/32/32
f 2/2/2 1/1/1 38/38/38
f 4/4/4 3/3/3 2/2/2
f 8/8/8 7/7/7 6/6/6
f 11/11/11 10/10/10 9/9/9
f 15/15/15 14/14/14 13/13/13
f 17/17/17 16/16/16 15/15/15
f 20/20/20 19/19/19 18/18/18
f 22/22/22 21/21/21 20/20/20
f 24/24/24 23/23/23 22/22/22
f 26/26/26 25/25/25 24/24/24
f 28/28/28 27/27/27 26/26/26
f 30/30/30 29/29/29 28/28/28
f 32/32/32 31/31/31 30/30/30
f 35/35/35 34/34/34 33/33/33
f 37/37/37 36/36/36 35/35/35
f 1/1/1 39/39/39 38/38/38
