g Combined Mesh (root scene)_2
v -6.16336 -9.499269 7
v -6.16336 -5.977006 7
v -19.49669 -5.977006 7
v -19.49669 -9.499269 7
v -32.79924 -9.499269 7
v -32.79924 -5.977006 7
v -19.46591 -5.977006 7
v -19.46591 -9.499269 7
v 100.3281 -9.499269 7
v 100.3281 -5.977006 7
v 86.9948 -5.977006 7
v 86.9948 -9.499269 7
v 20.47644 -9.499269 7
v 20.47644 -5.977006 7
v 6.976444 -5.977006 7
v 6.976444 -9.499269 7
v -6.242747 -9.499269 7
v -6.242747 -5.977006 7
v 7.090586 -5.977006 7
v 7.090586 -9.499269 7
v -59.3433 -9.499269 7
v -59.3433 -5.977006 7
v -72.67663 -5.977006 7
v -72.67663 -9.499269 7
v 73.76658 -9.499269 7
v 73.76658 -5.977006 7
v 60.26658 -5.977006 7
v 60.26658 -9.499269 7
v 47.12132 -9.499269 7
v 47.12132 -5.977006 7
v 33.62132 -5.977006 7
v 33.62132 -9.499269 7
v 20.40212 -9.499269 7
v 20.40212 -5.977006 7
v 33.73546 -5.977006 7
v 33.73546 -9.499269 7
v -59.38324 -9.499269 7
v -59.38324 -5.977006 7
v -46.0499 -5.977006 7
v -46.0499 -9.499269 7
v 73.69225 -9.499269 7
v 73.69225 -5.977006 7
v 87.02558 -5.977006 7
v 87.02558 -9.499269 7
v 47.04739 -9.499269 7
v 47.04739 -5.977006 7
v 60.38073 -5.977006 7
v 60.38073 -9.499269 7
v -86.36628 -9.499269 7
v -86.36628 -5.977006 7
v -72.63294 -5.977006 7
v -72.63294 -9.499269 7
v -32.7474 -9.499269 7
v -32.7474 -5.977006 7
v -46.08074 -5.977006 7
v -46.08074 -9.499269 7
vt 0.0004882813 0.0004882813
vt 0.0004882813 0.1245117
vt 0.2495117 0.1245117
vt 0.2495117 0.0004882813
vt 0.0004882813 0.0004882813
vt 0.0004882813 0.1245117
vt 0.2495117 0.1245117
vt 0.2495117 0.0004882813
vt 0.0004882813 0.0004882813
vt 0.0004882813 0.1245117
vt 0.2495117 0.1245117
vt 0.2495117 0.0004882813
vt 0.0004882813 0.0004882813
vt 0.0004882813 0.1245117
vt 0.2495117 0.1245117
vt 0.2495117 0.0004882813
vt 0.0004882813 0.0004882813
vt 0.0004882813 0.1245117
vt 0.2495117 0.1245117
vt 0.2495117 0.0004882813
vt 0.0004882813 0.0004882813
vt 0.0004882813 0.1245117
vt 0.2495117 0.1245117
vt 0.2495117 0.0004882813
vt 0.0004882813 0.0004882813
vt 0.0004882813 0.1245117
vt 0.2495117 0.1245117
vt 0.2495117 0.0004882813
vt 0.0004882813 0.0004882813
vt 0.0004882813 0.1245117
vt 0.2495117 0.1245117
vt 0.2495117 0.0004882813
vt 0.0004882813 0.0004882813
vt 0.0004882813 0.1245117
vt 0.2495117 0.1245117
vt 0.2495117 0.0004882813
vt 0.0004882813 0.0004882813
vt 0.0004882813 0.1245117
vt 0.2495117 0.1245117
vt 0.2495117 0.0004882813
vt 0.0004882813 0.0004882813
vt 0.0004882813 0.1245117
vt 0.2495117 0.1245117
vt 0.2495117 0.0004882813
vt 0.0004882813 0.0004882813
vt 0.0004882813 0.1245117
vt 0.2495117 0.1245117
vt 0.2495117 0.0004882813
vt 0.0004882813 0.0004882813
vt 0.0004882813 0.1245117
vt 0.2495117 0.1245117
vt 0.2495117 0.0004882813
vt 0.0004882813 0.0004882813
vt 0.0004882813 0.1245117
vt 0.2495117 0.1245117
vt 0.2495117 0.0004882813
vn 0 0 -1
vn 0 0 -1
vn 0 0 -1
vn 0 0 -1
vn 0 0 -1
vn 0 0 -1
vn 0 0 -1
vn 0 0 -1
vn 0 0 -1
vn 0 0 -1
vn 0 0 -1
vn 0 0 -1
vn 0 0 -1
vn 0 0 -1
vn 0 0 -1
vn 0 0 -1
vn 0 0 -1
vn 0 0 -1
vn 0 0 -1
vn 0 0 -1
vn 0 0 -1
vn 0 0 -1
vn 0 0 -1
vn 0 0 -1
vn 0 0 -1
vn 0 0 -1
vn 0 0 -1
vn 0 0 -1
vn 0 0 -1
vn 0 0 -1
vn 0 0 -1
vn 0 0 -1
vn 0 0 -1
vn 0 0 -1
vn 0 0 -1
vn 0 0 -1
vn 0 0 -1
vn 0 0 -1
vn 0 0 -1
vn 0 0 -1
vn 0 0 -1
vn 0 0 -1
vn 0 0 -1
vn 0 0 -1
vn 0 0 -1
vn 0 0 -1
vn 0 0 -1
vn 0 0 -1
vn 0 0 -1
vn 0 0 -1
vn 0 0 -1
vn 0 0 -1
vn 0 0 -1
vn 0 0 -1
vn 0 0 -1
vn 0 0 -1
g Combined Mesh (root scene)_2_0
f 3/3/3 2/2/2 1/1/1
f 1/1/1 4/4/4 3/3/3
g Combined Mesh (root scene)_2_1
f 7/7/7 8/8/8 5/5/5
f 5/5/5 6/6/6 7/7/7
g Combined Mesh (root scene)_2_2
f 11/11/11 10/10/10 9/9/9
f 9/9/9 12/12/12 11/11/11
g Combined Mesh (root scene)_2_3
f 15/15/15 14/14/14 13/13/13
f 13/13/13 16/16/16 15/15/15
g Combined Mesh (root scene)_2_4
f 19/19/19 20/20/20 17/17/17
f 17/17/17 18/18/18 19/19/19
g Combined Mesh (root scene)_2_5
f 23/23/23 22/22/22 21/21/21
f 21/21/21 24/24/24 23/23/23
g Combined Mesh (root scene)_2_6
f 27/27/27 26/26/26 25/25/25
f 25/25/25 28/28/28 27/27/27
g Combined Mesh (root scene)_2_7
f 31/31/31 30/30/30 29/29/29
f 29/29/29 32/32/32 31/31/31
g Combined Mesh (root scene)_2_8
f 35/35/35 36/36/36 33/33/33
f 33/33/33 34/34/34 35/35/35
g Combined Mesh (root scene)_2_9
f 39/39/39 40/40/40 37/37/37
f 37/37/37 38/38/38 39/39/39
g Combined Mesh (root scene)_2_10
f 43/43/43 44/44/44 41/41/41
f 41/41/41 42/42/42 43/43/43
g Combined Mesh (root scene)_2_11
f 47/47/47 48/48/48 45/45/45
f 45/45/45 46/46/46 47/47/47
g Combined Mesh (root scene)_2_12
f 51/51/51 52/52/52 49/49/49
f 49/49/49 50/50/50 51/51/51
g Combined Mesh (root scene)_2_13
f 55/55/55 54/54/54 53/53/53
f 53/53/53 56/56/56 55/55/55
